<?xml version="1.0" encoding="utf-8"?>
<!-- Generator: Adobe Illustrator 14.0.0, SVG Export Plug-In . SVG Version: 6.00 Build 43363)  -->
<!DOCTYPE svg PUBLIC "-//W3C//DTD SVG 1.1//EN" "http://www.w3.org/Graphics/SVG/1.1/DTD/svg11.dtd">
<svg version="1.1" id="Layer_1" xmlns="http://www.w3.org/2000/svg" xmlns:xlink="http://www.w3.org/1999/xlink" x="0px" y="0px"
	 width="145.5px" height="53.25px" viewBox="0 0 145.5 53.25" enable-background="new 0 0 145.5 53.25" xml:space="preserve">
<path fill-rule="evenodd" clip-rule="evenodd" fill="#FFFFFF" d="M31.132,28.383c0-0.542-0.285-1.04-0.753-1.309l-12.469-7.176
	c-0.211-0.124-0.447-0.188-0.687-0.198c-0.021,0-0.111,0-0.129,0c-0.238,0.01-0.475,0.074-0.688,0.198L3.938,27.074
	c-0.465,0.269-0.754,0.767-0.754,1.309l0.027,19.322c0,0.269,0.14,0.519,0.376,0.65c0.231,0.139,0.518,0.139,0.748,0l7.41-4.243
	c0.469-0.278,0.754-0.77,0.754-1.307v-9.027c0-0.538,0.285-1.036,0.752-1.304l3.155-1.817c0.235-0.136,0.492-0.202,0.755-0.202
	c0.257,0,0.521,0.066,0.749,0.202l3.154,1.817c0.467,0.268,0.753,0.766,0.753,1.304v9.027c0,0.537,0.289,1.031,0.755,1.307
	l7.408,4.243c0.232,0.139,0.522,0.139,0.753,0c0.229-0.132,0.374-0.382,0.374-0.65L31.132,28.383z"/>
<path fill-rule="evenodd" clip-rule="evenodd" fill="#FFFFFF" d="M97.712,1.821c-0.233-0.13-0.518-0.127-0.749,0.008
	c-0.229,0.135-0.371,0.382-0.371,0.649v19.135c0,0.188-0.101,0.362-0.263,0.457c-0.163,0.094-0.364,0.094-0.528,0l-3.122-1.799
	c-0.467-0.269-1.04-0.268-1.505,0L78.7,27.471c-0.466,0.269-0.753,0.766-0.753,1.304v14.401c0,0.538,0.287,1.034,0.753,1.305
	l12.473,7.204c0.467,0.269,1.041,0.269,1.507,0l12.476-7.204c0.466-0.271,0.753-0.767,0.753-1.305V7.279
	c0-0.546-0.295-1.049-0.772-1.315L97.712,1.821z M96.555,38.443c0,0.135-0.072,0.259-0.188,0.326l-4.283,2.469
	c-0.116,0.067-0.259,0.067-0.375,0l-4.283-2.469c-0.117-0.067-0.188-0.191-0.188-0.326v-4.944c0-0.134,0.072-0.259,0.188-0.326
	l4.283-2.474c0.117-0.067,0.26-0.067,0.377,0l4.282,2.474c0.116,0.067,0.188,0.192,0.188,0.326V38.443z"/>
<path fill-rule="evenodd" clip-rule="evenodd" fill="#FFFFFF" d="M142.338,33.369c0.465-0.27,0.75-0.766,0.75-1.302v-3.49
	c0-0.537-0.285-1.033-0.75-1.303l-12.394-7.196c-0.466-0.271-1.042-0.271-1.509-0.002l-12.47,7.199
	c-0.466,0.269-0.753,0.766-0.753,1.304v14.397c0,0.541,0.291,1.041,0.761,1.309l12.392,7.061c0.457,0.261,1.018,0.264,1.477,0.008
	l7.495-4.165c0.238-0.133,0.387-0.382,0.388-0.653c0.002-0.271-0.143-0.523-0.378-0.658l-12.548-7.203
	c-0.234-0.134-0.379-0.384-0.379-0.652v-4.512c0-0.269,0.144-0.518,0.377-0.652l3.905-2.251c0.232-0.134,0.52-0.134,0.752,0
	l3.907,2.251c0.233,0.134,0.377,0.383,0.377,0.652v3.55c0,0.269,0.145,0.518,0.378,0.652s0.521,0.134,0.754-0.002L142.338,33.369z"
	/>
<path fill-rule="evenodd" clip-rule="evenodd" fill="#8CC84B" d="M53.814,20.001c0.466-0.269,1.04-0.269,1.506,0l12.472,7.197
	c0.466,0.269,0.753,0.766,0.753,1.305v14.406c0,0.538-0.287,1.034-0.753,1.305L55.32,51.416c-0.466,0.27-1.041,0.27-1.507,0
	l-12.469-7.202c-0.466-0.27-0.753-0.767-0.753-1.305V28.502c0-0.538,0.287-1.035,0.753-1.304L53.814,20.001z"/>
<path fill="#8CC84B" d="M66.023,86.788"/>
<path fill-rule="evenodd" clip-rule="evenodd" fill="#8CC84B" d="M129.006,32.695c0.09-0.052,0.199-0.052,0.289,0l2.394,1.381
	c0.09,0.052,0.145,0.147,0.145,0.25v2.764c0,0.104-0.055,0.199-0.145,0.25l-2.394,1.382c-0.09,0.051-0.199,0.051-0.289,0
	l-2.392-1.382c-0.09-0.051-0.145-0.146-0.145-0.25v-2.764c0-0.104,0.055-0.199,0.145-0.25L129.006,32.695z"/>
</svg>
