<?xml version="1.0" encoding="utf-8"?>
<!-- Generator: Adobe Illustrator 16.0.0, SVG Export Plug-In . SVG Version: 6.00 Build 0)  -->
<!DOCTYPE svg PUBLIC "-//W3C//DTD SVG 1.1//EN" "http://www.w3.org/Graphics/SVG/1.1/DTD/svg11.dtd">
<svg version="1.1" id="Layer_1" xmlns="http://www.w3.org/2000/svg" xmlns:xlink="http://www.w3.org/1999/xlink" x="0px" y="0px"
	 width="139.904px" height="50.161px" viewBox="3.184 1.726 139.904 50.161" enable-background="new 3.184 1.726 139.904 50.161"
	 xml:space="preserve">
<path fill="#FFFFFF" d="M31.132,28.383c0-0.542-0.285-1.04-0.753-1.309L17.91,19.898c-0.211-0.124-0.447-0.188-0.687-0.198
	c-0.021,0-0.111,0-0.129,0c-0.238,0.01-0.475,0.074-0.688,0.198L3.938,27.074c-0.465,0.269-0.754,0.767-0.754,1.309l0.027,19.322
	c0,0.27,0.14,0.52,0.376,0.65c0.231,0.139,0.518,0.139,0.748,0l7.41-4.244c0.469-0.277,0.754-0.77,0.754-1.307v-9.027
	c0-0.537,0.285-1.035,0.752-1.303l3.155-1.817c0.235-0.136,0.492-0.202,0.755-0.202c0.257,0,0.521,0.066,0.749,0.202l3.154,1.817
	c0.467,0.268,0.753,0.766,0.753,1.303v9.027c0,0.537,0.289,1.031,0.755,1.307l7.408,4.244c0.232,0.139,0.522,0.139,0.753,0
	c0.229-0.133,0.374-0.383,0.374-0.65L31.132,28.383z"/>
<path fill="#FFFFFF" d="M97.712,1.821c-0.233-0.13-0.519-0.127-0.749,0.008c-0.229,0.135-0.371,0.382-0.371,0.649v19.135
	c0,0.188-0.101,0.362-0.263,0.457c-0.163,0.094-0.364,0.094-0.528,0l-3.121-1.799c-0.468-0.269-1.041-0.268-1.506,0l-12.474,7.2
	c-0.466,0.27-0.753,0.766-0.753,1.305v14.4c0,0.538,0.287,1.034,0.753,1.305l12.473,7.205c0.468,0.269,1.041,0.269,1.507,0
	l12.477-7.205c0.466-0.271,0.753-0.767,0.753-1.305V7.279c0-0.546-0.296-1.049-0.772-1.315L97.712,1.821z M96.555,38.443
	c0,0.135-0.072,0.259-0.188,0.326l-4.283,2.469c-0.116,0.066-0.259,0.066-0.375,0l-4.283-2.469
	c-0.117-0.067-0.188-0.191-0.188-0.326v-4.944c0-0.134,0.072-0.259,0.188-0.326l4.283-2.474c0.117-0.067,0.26-0.067,0.377,0
	l4.282,2.474c0.116,0.067,0.188,0.192,0.188,0.326v4.944H96.555z"/>
<path fill="#FFFFFF" d="M142.338,33.369c0.465-0.27,0.75-0.766,0.75-1.303v-3.489c0-0.537-0.285-1.033-0.75-1.304l-12.395-7.195
	c-0.465-0.271-1.041-0.271-1.508-0.002l-12.471,7.199c-0.466,0.269-0.753,0.766-0.753,1.304v14.397c0,0.541,0.291,1.041,0.761,1.309
	l12.393,7.061c0.457,0.262,1.018,0.264,1.477,0.008l7.495-4.164c0.238-0.133,0.388-0.383,0.388-0.653
	c0.002-0.271-0.143-0.522-0.377-0.658l-12.549-7.203c-0.234-0.134-0.379-0.384-0.379-0.651v-4.513c0-0.269,0.145-0.518,0.377-0.651
	l3.905-2.252c0.231-0.133,0.521-0.133,0.752,0l3.907,2.252c0.232,0.134,0.377,0.383,0.377,0.651v3.55
	c0,0.27,0.145,0.519,0.378,0.652c0.233,0.135,0.521,0.135,0.754-0.002L142.338,33.369z"/>
<path display="none" fill="#8CC84B" d="M53.814,20.001c0.466-0.269,1.04-0.269,1.506,0l12.472,7.197
	c0.466,0.269,0.753,0.766,0.753,1.305v14.406c0,0.538-0.287,1.034-0.753,1.305L55.32,51.416c-0.466,0.27-1.041,0.27-1.507,0
	l-12.469-7.202c-0.466-0.271-0.753-0.767-0.753-1.305V28.502c0-0.538,0.287-1.035,0.753-1.304L53.814,20.001z"/>
<path fill="#8CC84B" d="M129.006,32.695c0.09-0.053,0.199-0.053,0.289,0l2.395,1.381c0.09,0.052,0.145,0.146,0.145,0.25v2.764
	c0,0.104-0.055,0.199-0.145,0.25l-2.395,1.383c-0.09,0.051-0.199,0.051-0.289,0l-2.393-1.383c-0.09-0.051-0.145-0.146-0.145-0.25
	v-2.764c0-0.104,0.055-0.199,0.145-0.25L129.006,32.695z"/>
<path id="path2830" fill="#8CC84B" d="M47.682,20.883c1.211-0.753,1.2,0.844,2.047,1.041c1.786,0.412,0.526-0.638,1.111-1.362
	c0.572-0.706,0.576-1.103,1.577-1.535c0.372-0.161,2.573-0.716,0.82-1.112c0.338-0.388,0.822-0.135,1.178,0.276
	c0.008-0.111,0.052-0.282,0.066-0.35c0.661,0.994,2.73,0.877,3.535,1.193c0.096,0.038,0.405-0.603,0.611-0.007
	c0.143,0.413-0.234,0.697-0.32,0.872c-0.161,0.325-0.594-0.24-0.768,0.615c-0.087,0.424-0.466,0.88-0.747,1.138
	c1.174-0.039,2.735,1.154,3.662,1.848c0.352,0.264,0.654,0.865,1.059,0.966c1.111,0.278,0.908-0.09,1.305-0.765
	c0.689-1.168,0.651-3.092,0.947-4.205c0.403-1.52,0.404-2.407,1.185-0.827c0.215,0.433,0.85,1.437,0.85,2.433
	c0,0.631,0.739,0.126,1.127,0.586c0.468,0.553,0.237,1.115,0.447,1.736c0.373,1.108,0.561,2.524,1.476,3.414
	c0.871,0.848,1.539,1.448,2.087,2.818c0.096,0.24,0.135,0.473,0.164,0.717c0.38-0.244,0.31-0.14,0.597,0.396
	c0.259-1.624,0.25,0.784,0.678,1.252c0.385,0.419,0.618,0.944,0.974,1.38c0.286,0.352,0.889,0.167,0.765-0.091
	c0.203,0.424-0.387,1.812-0.31,2.827c0.085,1.143-0.297,2.923-0.771,3.966c-0.63,1.383-3.346,3.36-3.3,5.006
	c0.047,1.734-1.542,0.934-2.577,1.521c-0.638,0.363-1.213,1.094-1.625-0.032c-0.061,0.129-0.054,0.335-0.059,0.471
	c-0.138-0.086-0.308-0.272-0.448-0.337c0.031-0.187-0.016-0.35-0.03-0.61c0.003,1.556-2.271,0.531-3.116,0.119
	c-0.698-0.342-1.006-0.128-0.988-1.133c0.016-0.87-0.419-0.97-0.72-1.552c-1.14,0.9-0.641-0.151-0.671-0.634
	c-0.093-1.493-0.275-0.102-0.447-0.052c-0.783,0.225-1.069,0.465-0.28-0.385c0.485-0.52,0.528-1.353,0.354-1.957
	c-0.454,0.876-1.64,2.56-2.207,2.08c-0.137-0.115-0.761-1.414-0.85-1.595c-0.223-0.457,0.124-0.32-0.342-0.7
	c-0.479-0.392-0.723-0.229-1.417-0.486c-0.503-0.185-0.525-0.717-1.163-0.696c-1.304,0.043-2.716,1.226-3.877,1.226
	c-1.726,0-2.262,1.704-3.586,1.806c-0.89,0.069-1.6-0.049-2.434,0.327c-0.606,0.273-0.882,0.989-1.458,1.208
	c-0.58,0.221-1.532,0.034-2.006-0.327c-0.835-0.639-0.685-0.236-0.738-1.112c-0.005-0.084,0.221-0.996,0.228-1.364
	c0.015-0.809-0.398-0.829-0.779-1.431c-0.472-0.747-2.779-4.411-2.625-4.623c0.035-0.049,0.588,0.81,0.925,0.343
	c0.118-0.165-0.563-1.072-0.612-1.186c-0.411-0.958-0.405-1.975-0.217-3.191c0.036,0.08,0.278,0.372,0.336,0.484
	c0.416-1.708,3.143-2.879,4.601-3.533c1.219-0.547,2.054-0.313,2.595-1.878c0.163-0.474-0.157-1.228,0.342-1.596
	c0.281-0.208,0.999,0.206,0.917,0.343c0.265-0.44-0.319-1.105,0.436-1.067c0.639,0.034,0.405-0.404,0.152-0.619
	c0.195-0.605,0.794-0.719,1.075-0.975C46.779,21.636,47.054,21.263,47.682,20.883z"/>
<path id="path2846" fill="#8CC84B" d="M64.721,49.015c0.53-0.255,0.642,0.381,1.207,0.454c0.359,0.046,1.419-0.481,1.677-0.274
	c0.544,0.438-0.426,1.812-0.379,2.319c-0.048,0.008-0.095,0.008-0.142,0c-0.399-0.407-0.981,0.789-1.766-0.18
	C65.026,50.977,64.693,49.514,64.721,49.015z"/>
</svg>
